<?xml version="1.0" encoding="UTF-8" standalone="no"?>
<!-- Created with Inkscape (http://www.inkscape.org/) -->

<svg
   xmlns:dc="http://purl.org/dc/elements/1.1/"
   xmlns:cc="http://creativecommons.org/ns#"
   xmlns:rdf="http://www.w3.org/1999/02/22-rdf-syntax-ns#"
   xmlns:svg="http://www.w3.org/2000/svg"
   xmlns="http://www.w3.org/2000/svg"
   xmlns:sodipodi="http://sodipodi.sourceforge.net/DTD/sodipodi-0.dtd"
   xmlns:inkscape="http://www.inkscape.org/namespaces/inkscape"
   width="92.959358mm"
   height="92.865883mm"
   viewBox="0 0 92.959358 92.865883"
   version="1.1"
   id="svg8"
   inkscape:version="0.92.2 5c3e80d, 2017-08-06"
   sodipodi:docname="puzzle2.svg">
  <defs
     id="defs2" />
  <sodipodi:namedview
     id="base"
     pagecolor="#ffffff"
     bordercolor="#666666"
     borderopacity="1.0"
     inkscape:pageopacity="0.0"
     inkscape:pageshadow="2"
     inkscape:zoom="0.48284231"
     inkscape:cx="339.19926"
     inkscape:cy="39.232353"
     inkscape:document-units="mm"
     inkscape:current-layer="layer1"
     showgrid="false"
     inkscape:measure-start="198.823,408.001"
     inkscape:measure-end="238.173,24.8528"
     inkscape:window-width="1280"
     inkscape:window-height="755"
     inkscape:window-x="66"
     inkscape:window-y="17"
     inkscape:window-maximized="0" />
  <metadata
     id="metadata5">
    <rdf:RDF>
      <cc:Work
         rdf:about="">
        <dc:format>image/svg+xml</dc:format>
        <dc:type
           rdf:resource="http://purl.org/dc/dcmitype/StillImage" />
        <dc:title></dc:title>
      </cc:Work>
    </rdf:RDF>
  </metadata>
  <g
     inkscape:label="Layer 1"
     inkscape:groupmode="layer"
     id="layer1"
     transform="translate(-15.253528,-26.12846)">
    <path
       style="fill:#f19347;fill-opacity:1;stroke-width:0.58099008"
       d="m 62.071881,26.128486 c -0.75261,0 -8.256671,7.398388 -7.859563,7.748871 0.141881,0.125229 0.860217,0.541236 1.59629,0.924459 1.669935,0.869411 3.59605,3.953711 3.597876,5.764384 0.0031,1.893821 -3.529854,5.316061 -5.487939,5.316061 -2.321286,0 -4.76535,-1.505995 -5.635888,-3.472685 -0.427574,-0.965958 -0.91668,-1.756261 -1.086905,-1.756261 -0.17023,0 -2.117499,1.821865 -4.327233,4.048672 l -4.01767,4.048787 4.178582,4.112687 c 2.298186,2.262023 4.178463,4.570802 4.178463,5.130507 0,0.626529 -0.746446,1.287527 -1.942285,1.719953 -1.958677,0.708258 -3.286541,2.653232 -3.286541,4.813751 0,1.659147 2.574148,4.013186 4.388419,4.013186 1.630356,0 4.90735,-2.950903 4.90735,-4.418952 0,-1.833834 2.400411,-0.573559 6.16708,3.237737 v 1.15e-4 c 2.200156,2.226195 4.166322,4.055972 4.369437,4.066943 0.561247,0.02925 7.474196,-7.495706 7.474196,-8.135885 0,-0.307861 -0.211711,-0.559723 -0.470602,-0.559723 -0.258876,0 -1.304699,-0.815353 -2.323999,-1.811906 -2.560252,-2.503092 -2.584788,-5.501097 -0.06566,-8.020245 2.354627,-2.354755 4.50337,-2.350174 7.19752,0.0153 1.129507,0.991743 2.053687,2.168271 2.053687,2.614471 0,1.396073 0.726254,0.926344 4.764473,-3.080945 l 3.922299,-3.892119 -4.052916,-4.179758 c -2.229094,-2.298876 -4.052912,-4.555969 -4.052912,-5.015806 0,-0.459842 0.974757,-1.468153 2.166146,-2.240657 2.745372,-1.780148 3.649219,-4.083498 2.444605,-6.229673 -1.927771,-3.434559 -6.298118,-2.954067 -8.096755,0.890154 -0.479313,1.024415 -1.217393,2.001109 -1.640259,2.170631 -0.447629,0.179357 -2.362175,-1.390335 -4.582462,-3.757021 -2.09747,-2.235766 -4.112053,-4.065059 -4.476831,-4.065059 z"
       id="path3947"
       inkscape:connector-curvature="0" />
    <path
       style="fill:#fdedc4;fill-opacity:1;stroke-width:0.58099008"
       d="m 85.651877,49.119873 -4.784748,4.57126 c -5.188424,4.957019 -4.859379,4.909669 -7.017631,1.009102 -1.855525,-3.35351 -6.915775,-2.799756 -7.833628,0.857268 -0.562248,2.240138 0.401171,4.342217 2.696399,5.883211 1.11419,0.748069 2.091043,1.540512 2.170753,1.760978 0.07973,0.220463 -1.684981,2.36163 -3.921471,4.758227 -2.236494,2.396564 -4.06644,4.500439 -4.066592,4.675228 -1.83e-4,0.174815 1.045477,1.338995 2.323648,2.587126 1.193245,1.165155 2.182647,2.360413 2.309029,2.775621 0.07695,0.02809 0.169002,0.02201 0.235062,0.07026 0.02443,0.01788 -0.05179,0.03145 -0.07768,0.04718 0.06719,0.05585 0.137442,0.108189 0.201584,0.167519 0.0037,0.0037 -0.01153,0.0016 -0.01342,0.0065 -2.98e-4,4.4e-4 -2.98e-4,0.0016 -4.4e-4,0.0021 3.2e-4,4.41e-4 4.4e-4,4.41e-4 0.0016,10e-4 0.09307,0.0042 0.166758,0.01934 0.109986,0.08972 0.0037,0.0031 0.0073,0.0063 0.01111,0.0093 0.0304,-0.0058 0.07168,-0.0073 0.128966,-0.0021 0.0067,-0.0093 0.01378,-0.01819 0.02181,-0.02616 0.0016,-0.0016 0.0026,-0.0016 0.0042,-0.0021 0.0092,-0.001 0.0184,0.02411 0.02736,0.03334 0.01877,0.0026 0.03098,0.0184 0.03821,0.03915 0.124469,0.126922 0.114656,0.113592 0.191211,0.250274 0.0091,0.0031 0.01682,0.0067 0.02123,0.01012 0.01452,0.0074 0.02873,0.0162 0.0422,0.02642 0.08613,0.06523 0.103748,0.198848 0.174118,0.28163 0.339178,0.02862 0.746702,0.277594 0.932362,0.578109 0.50233,0.812695 2.033416,0.727282 2.033416,-0.113519 0,-0.38195 0.702505,-1.427757 1.561158,-2.324004 2.234445,-2.332349 5.435669,-2.275131 7.851078,0.140288 1.529267,1.529267 1.723319,2.062529 1.427359,3.921702 -0.322992,2.029118 -1.524561,3.495905 -4.219838,5.151617 -1.012622,0.62204 -0.773896,1.005992 2.993355,4.814925 l 4.093702,4.138969 4.32205,-4.088634 c 4.099599,-3.878185 6.37267,-5.053734 6.37267,-3.295615 0,1.426525 2.300171,3.757276 4.097595,4.152052 1.19534,0.262566 2.22607,0.08089 3.21439,-0.566672 3.34091,-2.189047 2.88482,-6.236549 -0.94532,-8.389229 -1.26483,-0.710844 -2.29972,-1.478853 -2.29972,-1.70663 0,-0.227782 1.83012,-2.230283 4.06694,-4.449957 2.23681,-2.219664 4.06695,-4.311709 4.06695,-4.649062 0,-0.337328 -1.70466,-2.302933 -3.78815,-4.367905 l -3.78814,-3.754425 -1.419935,1.737756 c -0.780919,0.955792 -1.429712,1.90216 -1.440683,2.103078 -0.01148,0.200903 -0.800193,0.688043 -1.75261,1.082547 -5.429484,2.248938 -10.145587,-4.582157 -5.943922,-8.609555 0.891126,-0.854163 2.132987,-1.843354 2.759707,-2.198096 1.055311,-0.597362 0.831984,-0.960572 -3.023416,-4.917372 z"
       id="path3945"
       inkscape:connector-curvature="0" />
    <path
       style="fill:#85a39e;fill-opacity:1;stroke-width:0.58099008"
       d="m 38.121847,49.33089 -4.4911,4.376042 c -2.470122,2.406825 -4.804921,4.36985 -5.188507,4.361068 -0.383582,-0.0082 -1.16294,-1.025641 -1.731861,-2.260815 -1.279789,-2.778566 -3.506543,-3.877367 -5.964081,-2.943021 -2.073523,0.788361 -2.56758,1.512849 -2.578984,3.78237 -0.01136,2.243694 1.21246,3.984337 3.453935,4.912775 0.971357,0.40237 1.766047,1.104717 1.766047,1.560689 0,0.455968 -1.830129,2.651932 -4.066943,4.879878 -2.236814,2.227956 -4.066825,4.283634 -4.066825,4.568314 0,0.284665 1.731341,2.104122 3.847442,4.043131 l 3.847435,3.525494 1.222477,-1.585799 c 2.661731,-3.452541 4.889609,-4.270063 7.623913,-2.797552 4.744408,2.55503 4.586555,7.118638 -0.351656,10.165888 l -1.530509,0.944496 3.854511,4.165848 c 2.119961,2.291239 3.935882,4.181422 4.035352,4.201219 0.09947,0.01945 1.929608,-1.784248 4.066943,-4.008351 4.618928,-4.806454 5.801877,-5.191271 7.216379,-2.347115 2.258671,4.541503 7.67315,4.105758 8.88305,-0.714854 0.408401,-1.627177 -0.897192,-3.320577 -4.429325,-5.745169 l -1.370304,-0.940722 4.200744,-4.332193 c 2.310403,-2.382732 4.195576,-4.573923 4.191079,-4.86927 -0.0053,-0.295342 -1.678264,-2.202754 -3.717768,-4.238702 -3.441541,-3.435542 -4.987395,-4.094319 -4.987395,-2.125481 0,0.432055 -0.804466,1.462305 -1.787621,2.289582 -3.125779,2.630154 -7.042726,1.727418 -9.009893,-2.076681 -0.762613,-1.474719 -0.794716,-2.070193 -0.194396,-3.595989 0.761269,-1.934848 2.40214,-3.612956 4.286331,-4.383466 1.014435,-0.414818 0.694975,-0.917994 -2.945259,-4.638457 z"
       id="path3943"
       inkscape:connector-curvature="0" />
    <path
       style="fill:#f4d055;fill-opacity:1;stroke-width:0.58099008"
       d="m 62.00115,73.791727 c -0.729295,0.02862 -7.822098,6.672813 -7.817596,7.322832 0.0022,0.274197 0.784134,0.942757 1.738109,1.485594 0.95397,0.542817 2.153274,1.865207 2.665161,2.938664 0.845975,1.77408 0.848336,2.148655 0.02569,4.11751 -0.641824,1.536102 -1.515377,2.420969 -3.004082,3.042993 -1.918217,0.80142 -2.282258,0.78711 -4.22491,-0.166224 -1.169202,-0.573727 -2.5217,-1.827482 -3.005499,-2.78611 -0.483808,-0.958633 -0.952334,-1.859293 -1.041285,-2.001584 -0.193891,-0.309966 -8.262735,7.628187 -8.262735,8.128934 0,0.191719 1.830133,2.252759 4.066943,4.580104 2.23681,2.32733 4.066943,4.59234 4.066943,5.03337 0,0.44099 -0.893926,1.17534 -1.986611,1.63189 -2.27226,0.9494 -3.242215,2.41979 -3.242215,4.91501 0,2.04439 2.278207,4.14734 4.493098,4.14734 1.527565,0 4.802671,-3.01346 4.802671,-4.41895 0,-1.80477 2.444117,-0.59415 6.481715,3.21051 l 4.26664,4.02073 2.516509,-2.42279 c 1.384037,-1.33254 3.033098,-3.13787 3.664598,-4.01189 l 1.148214,-1.58922 -2.357367,-2.24255 c -1.628687,-1.54934 -2.357478,-2.73112 -2.357478,-3.82315 0,-3.16558 2.561531,-6.116167 5.32962,-6.139251 1.740056,-0.01452 4.875455,2.342581 5.426753,4.079551 0.198397,0.62506 0.544698,1.13642 0.769561,1.13642 0.555947,0 8.227717,-7.48139 8.227717,-8.023546 0,-0.237594 -1.830123,-2.248089 -4.066938,-4.467747 -2.236804,-2.21968 -4.066943,-4.360399 -4.066943,-4.757177 0,-0.396742 0.588262,-1.024679 1.307236,-1.395406 4.78403,-2.466756 5.322947,-6.879052 1.056018,-8.646454 -1.506928,-0.624199 -2.011014,-0.570928 -3.653397,0.385488 -1.047888,0.610209 -2.24639,1.815149 -2.663276,2.677775 -0.901803,1.866113 -1.87928,1.986226 -3.308935,0.406466 -0.225528,-0.249179 -0.391055,-0.480399 -0.48876,-0.670059 -0.02511,-0.01253 -0.05132,-0.03009 -0.07792,-0.05494 -0.03743,-0.03491 -0.625987,-0.442407 -0.552294,-0.538503 0.0091,-0.0119 0.02029,-0.02118 0.03218,-0.02946 -0.03847,-0.02401 -0.07809,-0.04623 -0.118714,-0.06661 -0.01782,0 -0.03182,-0.0016 -0.03716,-0.0061 -0.0026,-0.0016 -0.0042,-0.0047 -0.0066,-0.0069 -4.41e-4,0.0026 -4.41e-4,0.0042 -0.0016,0.0069 -4.45e-4,0.0031 -0.0016,-0.0042 -0.0016,-0.01006 -0.01871,-0.01793 -0.03538,-0.03774 -0.05105,-0.05859 -4.46e-4,0.0021 -0.0016,0.0042 -0.0037,0.0061 -0.03066,0.02988 -0.07768,-0.03633 -0.116476,-0.05446 -0.02144,0.225968 -0.04676,0.07492 -0.06012,-0.07049 -0.0096,-0.02071 -0.01457,-0.04513 -0.01756,-0.07073 -0.02285,-0.01122 -0.06392,-0.04681 -0.105274,-0.141227 -0.03863,-0.01971 -0.08694,-0.06477 -0.140518,-0.147479 -0.0047,-0.0077 -0.0057,-0.01625 -0.0047,-0.02506 -0.0488,0.01714 -0.127273,-0.100572 -0.145231,-0.156553 -0.0031,0.0037 -0.0067,0.007 -0.0094,0.01075 -0.106589,-0.101835 -0.0683,-0.04015 -0.110573,-0.188616 -0.457356,-0.317137 -1.14976,-0.911568 -1.926492,-1.673859 -1.370151,-1.344709 -2.742855,-2.434001 -3.0503,-2.42303 z"
       id="path3941"
       inkscape:connector-curvature="0" />
  </g>
</svg>
