<?xml version="1.0" encoding="UTF-8" standalone="no"?>
<!-- Created with Inkscape (http://www.inkscape.org/) -->

<svg
   xmlns:dc="http://purl.org/dc/elements/1.1/"
   xmlns:cc="http://creativecommons.org/ns#"
   xmlns:rdf="http://www.w3.org/1999/02/22-rdf-syntax-ns#"
   xmlns:svg="http://www.w3.org/2000/svg"
   xmlns="http://www.w3.org/2000/svg"
   xmlns:sodipodi="http://sodipodi.sourceforge.net/DTD/sodipodi-0.dtd"
   xmlns:inkscape="http://www.inkscape.org/namespaces/inkscape"
   width="49.492085mm"
   height="41.712448mm"
   viewBox="0 0 49.492084 41.712448"
   version="1.1"
   id="svg8"
   inkscape:version="0.92.2 5c3e80d, 2017-08-06"
   sodipodi:docname="puzzlepiece2.svg">
  <defs
     id="defs2" />
  <sodipodi:namedview
     id="base"
     pagecolor="#ffffff"
     bordercolor="#666666"
     borderopacity="1.0"
     inkscape:pageopacity="0.0"
     inkscape:pageshadow="2"
     inkscape:zoom="0.48284231"
     inkscape:cx="167.38503"
     inkscape:cy="-148.95409"
     inkscape:document-units="mm"
     inkscape:current-layer="layer1"
     showgrid="false"
     inkscape:measure-start="198.823,408.001"
     inkscape:measure-end="238.173,24.8528"
     inkscape:window-width="1280"
     inkscape:window-height="755"
     inkscape:window-x="-4"
     inkscape:window-y="2"
     inkscape:window-maximized="0"
     fit-margin-top="0"
     fit-margin-left="0"
     fit-margin-right="0"
     fit-margin-bottom="0" />
  <metadata
     id="metadata5">
    <rdf:RDF>
      <cc:Work
         rdf:about="">
        <dc:format>image/svg+xml</dc:format>
        <dc:type
           rdf:resource="http://purl.org/dc/dcmitype/StillImage" />
        <dc:title></dc:title>
      </cc:Work>
    </rdf:RDF>
  </metadata>
  <g
     inkscape:label="Layer 1"
     inkscape:groupmode="layer"
     id="layer1"
     transform="translate(-60.712711,-51.254171)">
    <path
       style="fill:#fdedc4;fill-opacity:1;stroke-width:0.58099008"
       d="m 106.70228,81.50389 -2.28571,-6.210137 c -2.47862,-6.734107 -2.56633,-6.413451 1.87122,-6.838417 3.81518,-0.365337 5.32395,-5.227062 2.33568,-7.526305 -1.83048,-1.408428 -4.14237,-1.362561 -6.47041,0.128391 -1.13013,0.723759 -2.246227,1.303875 -2.480201,1.289119 -0.233972,-0.01473 -1.494468,-2.486567 -2.801217,-5.492889 -1.306717,-3.006313 -2.507012,-5.523113 -2.66726,-5.592911 -0.16026,-0.06984 -1.64472,0.425238 -3.298838,1.100104 -1.544171,0.630044 -3.034714,1.061136 -3.465891,1.011575 -0.05643,0.05938 -0.08754,0.14623 -0.158118,0.187588 -0.02614,0.01528 -0.0082,-0.06004 -0.01226,-0.09005 -0.078,0.03937 -0.154001,0.08294 -0.233978,0.118123 -0.0049,0.002 0.0031,-0.01122 -6.13e-4,-0.0149 -2.86e-4,-4.47e-4 -0.0013,-9.1e-4 -0.0018,-0.0012 -5.32e-4,1.18e-4 -5.79e-4,2.28e-4 -0.0015,0.0011 -0.04094,0.08368 -0.0842,0.145235 -0.126119,0.06512 -0.0043,0.0021 -0.0087,0.0042 -0.01296,0.0065 -0.0068,0.03019 -0.02187,0.06865 -0.04947,0.119119 0.0058,0.0099 0.01119,0.01989 0.0153,0.03043 8.27e-4,0.0021 4.28e-4,0.003 2.52e-4,0.0047 -0.0027,0.0089 -0.02945,0.0072 -0.04148,0.01186 -0.0099,0.01618 -0.02922,0.02108 -0.05113,0.01944 -0.166013,0.06357 -0.149875,0.05989 -0.305743,0.07563 -0.0064,0.0071 -0.01285,0.01276 -0.01775,0.01544 -0.01257,0.01036 -0.02631,0.01989 -0.04105,0.02818 -0.09415,0.053 -0.223723,0.01587 -0.327689,0.04746 -0.161422,0.299674 -0.55218,0.574214 -0.90179,0.624729 -0.945561,0.136835 -1.477405,1.575117 -0.706259,1.9102 0.350307,0.152218 1.029508,1.213309 1.509308,2.358008 1.248637,2.978841 -0.07962,5.89206 -3.257544,7.144754 -2.012034,0.79312 -2.578453,0.758576 -4.165657,-0.2538 -1.732295,-1.104895 -2.598708,-2.791478 -3.043109,-5.923315 -0.166949,-1.176633 -0.614232,-1.1107 -5.608975,0.826488 l -5.427537,2.105066 2.027455,5.593431 c 1.923093,5.305539 2.095371,7.85879 0.482903,7.158128 -1.308347,-0.56851 -4.362692,0.612235 -5.441088,2.103423 -0.717191,0.991674 -0.961342,2.009417 -0.7613,3.173933 0.67625,3.936533 4.570205,5.131272 8.070969,2.47634 1.156025,-0.876754 2.272842,-1.519836 2.48175,-1.42906 0.208911,0.09078 1.316161,2.567336 2.460512,5.503452 1.144345,2.936103 2.333715,5.448367 2.64312,5.582812 0.309382,0.134434 2.791504,-0.645656 5.515735,-1.733591 l 4.953075,-1.978069 -1.027909,-1.994848 c -0.565426,-1.097218 -1.17483,-2.069417 -1.354731,-2.159551 -0.179684,-0.09059 -0.312143,-1.008107 -0.294399,-2.038843 0.101177,-5.87595 8.245858,-7.478965 10.265127,-2.02035 0.428261,1.15771 0.840587,2.690911 0.916174,3.407086 0.127302,1.20595 0.549426,1.145874 5.714915,-0.813231 z"
       id="path3945"
       inkscape:connector-curvature="0" />
    <path
       style="fill:#aa00d4;stroke-width:0.58099008"
       d="m 67.74278,78.785135 c 0.001,0.001 0.0016,0.0021 0.0031,0.0031 4.4e-4,-0.0031 0.001,-0.0053 0.0016,-0.0083 -3.04e-4,0 -4.41e-4,-4.4e-4 -10e-4,-4.4e-4 -3.14e-4,0 -0.001,-4.46e-4 -0.0016,-4.46e-4 -0.0016,-0.001 -0.0021,0.0026 -0.0021,0.0065 z"
       id="path3939"
       inkscape:connector-curvature="0" />
    <path
       style="fill:#aa00d4;stroke-width:0.58099008"
       d="m 67.249429,78.113777 c -2.6e-5,5.2e-5 -6.3e-5,-2.1e-5 -1.26e-4,4.4e-4 0.0052,0.0095 0.01069,0.01871 0.01782,0.02726 0.001,-0.0021 0.001,-0.0016 0.0016,-0.0042 -0.0072,-0.0082 -0.01331,-0.01593 -0.01908,-0.02359 z"
       id="path3937"
       inkscape:connector-curvature="0" />
    <path
       style="fill:#aa00d4;stroke-width:0.58099008"
       d="m 67.276754,78.147381 c -2.1e-5,0 -1.21e-4,4.46e-4 -1.21e-4,0.001 3.04e-4,0 4.4e-4,2.1e-5 10e-4,0 -3.04e-4,-4.41e-4 -4.41e-4,-4.41e-4 -10e-4,-0.001 z"
       id="path3935"
       inkscape:connector-curvature="0" />
    <path
       style="fill:#aa00d4;stroke-width:0.58099008"
       d="m 67.807714,78.240279 c 0.0026,0.0021 0.0056,0.0042 0.0083,0.0066 4.46e-4,-0.0021 -0.0016,-0.0042 -0.0083,-0.0066 z"
       id="path3933"
       inkscape:connector-curvature="0" />
    <path
       style="fill:#aa00d4;stroke-width:0.58099008"
       d="m 68.449368,78.736686 c 0.0037,0.01138 0.01053,0.03255 0.01614,0.05011 0.0042,0.0072 0.0079,0.01373 0.01237,0.02149 0.0055,-0.04057 -0.0068,-0.06247 -0.02851,-0.07157 z"
       id="path3931"
       inkscape:connector-curvature="0" />
    <path
       style="fill:#aa00d4;stroke-width:0.58099008"
       d="m 67.997038,78.956669 c -0.0047,0.0037 -0.01027,0.0064 -0.0151,0.01001 -0.001,0.007 0.0016,0.01227 0.0047,0.01677 0.0026,-0.0092 0.006,-0.01814 0.01027,-0.02673 z"
       id="path3850"
       inkscape:connector-curvature="0" />
  </g>
</svg>
