<?xml version="1.0" encoding="UTF-8" standalone="no"?>
<!-- Created with Inkscape (http://www.inkscape.org/) -->

<svg
   xmlns:dc="http://purl.org/dc/elements/1.1/"
   xmlns:cc="http://creativecommons.org/ns#"
   xmlns:rdf="http://www.w3.org/1999/02/22-rdf-syntax-ns#"
   xmlns:svg="http://www.w3.org/2000/svg"
   xmlns="http://www.w3.org/2000/svg"
   xmlns:sodipodi="http://sodipodi.sourceforge.net/DTD/sodipodi-0.dtd"
   xmlns:inkscape="http://www.inkscape.org/namespaces/inkscape"
   width="45.31731mm"
   height="45.202614mm"
   viewBox="0 0 45.31731 45.202614"
   version="1.1"
   id="svg8"
   inkscape:version="0.92.2 5c3e80d, 2017-08-06"
   sodipodi:docname="puzzlepiece4.svg">
  <defs
     id="defs2" />
  <sodipodi:namedview
     id="base"
     pagecolor="#ffffff"
     bordercolor="#666666"
     borderopacity="1.0"
     inkscape:pageopacity="0.0"
     inkscape:pageshadow="2"
     inkscape:zoom="0.48284231"
     inkscape:cx="-185.76527"
     inkscape:cy="371.42326"
     inkscape:document-units="mm"
     inkscape:current-layer="layer1"
     showgrid="false"
     inkscape:measure-start="198.823,408.001"
     inkscape:measure-end="238.173,24.8528"
     inkscape:window-width="1280"
     inkscape:window-height="755"
     inkscape:window-x="66"
     inkscape:window-y="17"
     inkscape:window-maximized="0"
     fit-margin-top="0"
     fit-margin-left="0"
     fit-margin-right="0"
     fit-margin-bottom="0" />
  <metadata
     id="metadata5">
    <rdf:RDF>
      <cc:Work
         rdf:about="">
        <dc:format>image/svg+xml</dc:format>
        <dc:type
           rdf:resource="http://purl.org/dc/dcmitype/StillImage" />
        <dc:title></dc:title>
      </cc:Work>
    </rdf:RDF>
  </metadata>
  <g
     inkscape:label="Layer 1"
     inkscape:groupmode="layer"
     id="layer1"
     transform="translate(-39.074003,-73.791727)">
    <path
       style="fill:#f4d055;fill-opacity:1;stroke-width:0.58099008"
       d="m 62.00115,73.791727 c -0.729295,0.02862 -7.822098,6.672813 -7.817596,7.322832 0.0022,0.274197 0.784134,0.942757 1.738109,1.485594 0.95397,0.542817 2.153274,1.865207 2.665161,2.938664 0.845975,1.77408 0.848336,2.148655 0.02569,4.11751 -0.641824,1.536102 -1.515377,2.420969 -3.004082,3.042993 -1.918217,0.80142 -2.282258,0.78711 -4.22491,-0.166224 -1.169202,-0.573727 -2.5217,-1.827482 -3.005499,-2.78611 -0.483808,-0.958633 -0.952334,-1.859293 -1.041285,-2.001584 -0.193891,-0.309966 -8.262735,7.628187 -8.262735,8.128934 0,0.191719 1.830133,2.252759 4.066943,4.580104 2.23681,2.32733 4.066943,4.59234 4.066943,5.03337 0,0.44099 -0.893926,1.17534 -1.986611,1.63189 -2.27226,0.9494 -3.242215,2.41979 -3.242215,4.91501 0,2.04439 2.278207,4.14734 4.493098,4.14734 1.527565,0 4.802671,-3.01346 4.802671,-4.41895 0,-1.80477 2.444117,-0.59415 6.481715,3.21051 l 4.26664,4.02073 2.516509,-2.42279 c 1.384037,-1.33254 3.033098,-3.13787 3.664598,-4.01189 l 1.148214,-1.58922 -2.357367,-2.24255 c -1.628687,-1.54934 -2.357478,-2.73112 -2.357478,-3.82315 0,-3.16558 2.561531,-6.116167 5.32962,-6.139251 1.740056,-0.01452 4.875455,2.342581 5.426753,4.079551 0.198397,0.62506 0.544698,1.13642 0.769561,1.13642 0.555947,0 8.227717,-7.48139 8.227717,-8.023546 0,-0.237594 -1.830123,-2.248089 -4.066938,-4.467747 -2.236804,-2.21968 -4.066943,-4.360399 -4.066943,-4.757177 0,-0.396742 0.588262,-1.024679 1.307236,-1.395406 4.78403,-2.466756 5.322947,-6.879052 1.056018,-8.646454 -1.506928,-0.624199 -2.011014,-0.570928 -3.653397,0.385488 -1.047888,0.610209 -2.24639,1.815149 -2.663276,2.677775 -0.901803,1.866113 -1.87928,1.986226 -3.308935,0.406466 -0.225528,-0.249179 -0.391055,-0.480399 -0.48876,-0.670059 -0.02511,-0.01253 -0.05132,-0.03009 -0.07792,-0.05494 -0.03743,-0.03491 -0.625987,-0.442407 -0.552294,-0.538503 0.0091,-0.0119 0.02029,-0.02118 0.03218,-0.02946 -0.03847,-0.02401 -0.07809,-0.04623 -0.118714,-0.06661 -0.01782,0 -0.03182,-0.0016 -0.03716,-0.0061 -0.0026,-0.0016 -0.0042,-0.0047 -0.0066,-0.0069 -4.41e-4,0.0026 -4.41e-4,0.0042 -0.0016,0.0069 -4.45e-4,0.0031 -0.0016,-0.0042 -0.0016,-0.01006 -0.01871,-0.01793 -0.03538,-0.03774 -0.05105,-0.05859 -4.46e-4,0.0021 -0.0016,0.0042 -0.0037,0.0061 -0.03066,0.02988 -0.07768,-0.03633 -0.116476,-0.05446 -0.02144,0.225968 -0.04676,0.07492 -0.06012,-0.07049 -0.0096,-0.02071 -0.01457,-0.04513 -0.01756,-0.07073 -0.02285,-0.01122 -0.06392,-0.04681 -0.105274,-0.141227 -0.03863,-0.01971 -0.08694,-0.06477 -0.140518,-0.147479 -0.0047,-0.0077 -0.0057,-0.01625 -0.0047,-0.02506 -0.0488,0.01714 -0.127273,-0.100572 -0.145231,-0.156553 -0.0031,0.0037 -0.0067,0.007 -0.0094,0.01075 -0.106589,-0.101835 -0.0683,-0.04015 -0.110573,-0.188616 -0.457356,-0.317137 -1.14976,-0.911568 -1.926492,-1.673859 -1.370151,-1.344709 -2.742855,-2.434001 -3.0503,-2.42303 z"
       id="path3941"
       inkscape:connector-curvature="0" />
    <path
       style="fill:#aa00d4;stroke-width:0.58099008"
       d="m 67.74278,78.785135 c 0.001,0.001 0.0016,0.0021 0.0031,0.0031 4.4e-4,-0.0031 0.001,-0.0053 0.0016,-0.0083 -3.04e-4,0 -4.41e-4,-4.4e-4 -10e-4,-4.4e-4 -3.14e-4,0 -0.001,-4.46e-4 -0.0016,-4.46e-4 -0.0016,-0.001 -0.0021,0.0026 -0.0021,0.0065 z"
       id="path3939"
       inkscape:connector-curvature="0" />
    <path
       style="fill:#aa00d4;stroke-width:0.58099008"
       d="m 67.249429,78.113777 c -2.6e-5,5.2e-5 -6.3e-5,-2.1e-5 -1.26e-4,4.4e-4 0.0052,0.0095 0.01069,0.01871 0.01782,0.02726 0.001,-0.0021 0.001,-0.0016 0.0016,-0.0042 -0.0072,-0.0082 -0.01331,-0.01593 -0.01908,-0.02359 z"
       id="path3937"
       inkscape:connector-curvature="0" />
    <path
       style="fill:#aa00d4;stroke-width:0.58099008"
       d="m 67.276754,78.147381 c -2.1e-5,0 -1.21e-4,4.46e-4 -1.21e-4,0.001 3.04e-4,0 4.4e-4,2.1e-5 10e-4,0 -3.04e-4,-4.41e-4 -4.41e-4,-4.41e-4 -10e-4,-0.001 z"
       id="path3935"
       inkscape:connector-curvature="0" />
    <path
       style="fill:#aa00d4;stroke-width:0.58099008"
       d="m 67.807714,78.240279 c 0.0026,0.0021 0.0056,0.0042 0.0083,0.0066 4.46e-4,-0.0021 -0.0016,-0.0042 -0.0083,-0.0066 z"
       id="path3933"
       inkscape:connector-curvature="0" />
    <path
       style="fill:#aa00d4;stroke-width:0.58099008"
       d="m 68.449368,78.736686 c 0.0037,0.01138 0.01053,0.03255 0.01614,0.05011 0.0042,0.0072 0.0079,0.01373 0.01237,0.02149 0.0055,-0.04057 -0.0068,-0.06247 -0.02851,-0.07157 z"
       id="path3931"
       inkscape:connector-curvature="0" />
    <path
       style="fill:#aa00d4;stroke-width:0.58099008"
       d="m 67.997038,78.956669 c -0.0047,0.0037 -0.01027,0.0064 -0.0151,0.01001 -0.001,0.007 0.0016,0.01227 0.0047,0.01677 0.0026,-0.0092 0.006,-0.01814 0.01027,-0.02673 z"
       id="path3850"
       inkscape:connector-curvature="0" />
  </g>
</svg>
